<?xml version="1.0" encoding="UTF-8"?>
<svg id="Livello_1" data-name="Livello 1" xmlns="http://www.w3.org/2000/svg" viewBox="0 0 400.68 328.84">
  <defs>
    <style>
      .cls-1 {
        fill: #5e7382;
      }
    </style>
  </defs>
  <g>
    <path class="cls-1" d="M195.13,253.57c-.38-3.44-.42-6.76-.23-10.25l.63-11.4c.22-3.92.19-7.68-.45-11.59-3.49,4.03-11.77,8.42-16.11,9.48-2.18.54-4.34,1.25-6.59,1.65-6.27,1.12-12.82.31-18.73-1.85-2.67-.97-4.69-3.04-7.08-4.36-2.6-1.44-4.21-3.2-5.89-5.65-1.73-2.52-4.48-4.58-5.49-7.59l-1.65-4.91c-.78-2.32-.98-4.94-.85-7.54.11-2.19,1.35-4.52,2.45-6.41l2.39-4.08c-2.24-2.01-2.69,1.03-6.06-1.37,1.52-.78,2.51-1.21,3.79-1.67,6.55-2.38,8.49-6.01,12.41-7.85.57-.27,1.01,1.48.79,2.1-1.34,3.75-2.3,11.17-2.29,15.03v4.02c-1.99,1.88-4.13-3.89-4.51-5.73-2.52,4.52-1.79,9.68-.11,14.41,1.14,3.21,2.54,5.52,5.16,7.87l3.93,3.53c4.11,3.69,16.18,6.89,21.82,4.62l7.71-3.09c4.93-1.98,4.95-5.38,9.41-3.83-.01-5.86,4.85-4.88,6.12-9.86-.24-3.69-.32-7.08-.53-10.77l-.38-6.71c-.44-7.65,0-15.21-1.52-22.92l3.02-3.25c-1.22-1.01-2.24-1.93-3.25-3.11.55-6.15.21-11.83-.34-17.9s.24-8.34-.39-15.01l-1.13-12.01-8.75.07-3.83.03c-2.03.02-3.96.1-5.94.02l-3.84-.16c-.3-.01-1.07.04-1.34.11-.92.24-.91,9.68-3.85,9.95-1.78.17-1.74-4.38-1.66-5.49.4-5.42-.82-9.51-2.84-14.57-.63-1.59-.83-3.32,0-4.92,2.87,1.8,4.89,4.43,5.98,7.12l4.74-.42,6.41-.37c4.92-.29,4.25-1.05,8.7,2.41l1.39-2.12,3.22-.13,3.32-.16c.17-5.83.17-11.43-.26-17.52l-3.99-1.61c-1.59-.64-3.05-1.96-4.63-2.79-3.27-1.71-6.32-5.46-7.88-8.98-.82-1.86-2.25-3.8-2.31-5.95-.15-5.07,1.31-12.81,3.9-17.25,1.11-1.91,5.9-8.11,7.51-9.3l2.9-2.13c1.77-1.3,3.23-2.71,5.5-3.04l-.09-2.65c-.06-1.87-.2-3.56-.5-5.45l-.64-4.09c-1.39.32-3.23.04-3.68-1.2-1.64-4.47,7.79-9.17,9.72-14.38-1.85.92-3.62,1.77-5.42,3.03l-6.57,4.58c-.36.25-1.63.12-1.79-.24-.71-1.66,1.2-2.3,1.19-4.97,0-1.46.27-2.5.72-3.89.67-2.08.7-4.61,1.95-6.49l1.45-2.2c.16-.24.96-.61,1.19-.42s.67.84.69,1.17l.4,6c.04.68-.25,1.72-.31,2.62,2.45-.62,7.16-5.17,9.44-4.63,1.4.34,0,5.67-.47,6.48l-4.37,7.68c1.29-.32,1.93-.54,2.54-.59.74-.06.99,1.35,1.01,2.01l.25,9.47c.04,1.63.01,3.15-.47,4.83-.36,1.24-.25,3.57,1.33,3.92l3.98.88c1.51.34,1.77,1.91,1.68,3.38.79.83,2.88.89,3.87,1.48,3.24,1.93,5.12,5.46,7.1,8.57,2.65,4.16,3.45,8.66,3.21,13.57-.18,3.68-.68,8.06-2.67,11.24-3.06,4.88-9.45,11.37-15.67,11.62-1.89,1.93.78,4.48-1.96,6.47-2.08,1.52,1.26,1.81,1.17,3.78-.12,2.58-.15,4.76-.09,6.89,4.4.53,8.19.64,12.36.58l6.08-.09c1.71-.03,3.26.23,5.16.56.74-.74,1.18-2.12,1.56-3.32l1.11-3.48c.1-.32,1.03-.69,1.37-.67,2.06.14,1.71,8.4,1.35,10.1l-1.84,2.49c1.44.76,1.78,2.33,1.94,3.94.24,2.48.49,4.88-.92,7.13-.7,1.11-3.64,1.43-3.94-.1-.49-2.53.04-5.29-1.81-7.46l-8.58.05-3.89.05c-3.57.04-6.73.43-10.41-.5l.65,18.9-.04,11.27.27,16.02.12,6.6c.13,7.21.67,14.21.71,21.4.02,3.61-.01,7.09.35,10.72l.31,3.07c.33,3.31,3.04,6.24,5.2,8.45,3.79,3.89,4.09,4.13,10.02,6.37,12.1,4.57,11.77,1.34,18.48,1.48,2.02.04,3.97.28,5.8-.68l5.67-2.98c2.04-1.07,3.15-3.36,4.4-5.16,2.01-2.89,2.93-5.89,3.05-9.44.09-2.84.22-5.46-1.8-8l-1.02,2.58c-.4,1.02-1.22,1.91-2.18,2.89-.44-1-.42-1.8-.47-2.9-.21-5.38-.68-10.56-1.34-15.96-.09-.75.59-2.31,1.56-1.84,1.27.62,2.2,2.26,3.37,3l8.76,5.53,4.9,3.14c.13.08.43.61.34.63s-.45.08-.42.09c.03,0-.29-.26-.32-.29-.46.2-1.35.43-1.85.34l-2.27-.45c-1-.2-2.08-.36-3.05-.43,1.78,2.62,4.49,9.07,3.97,11.28l-1.71,7.28c-.24,1.02-2.23,4.3-2.98,5.45-1.62,2.51-3.29,4.82-5.67,6.63-3.48,2.64-6.82,5.25-10.98,6.82-2.11.8-4.58.9-6.7,1.32-4.08.79-7.56-.04-11.53-.94s-7.75-1.04-11.24-3.06l-3.98-2.31c-1.7-.99-3.14-2.64-4.74-3.97-.29.87-1.03,2.42-.99,3.3l.61,11.01c.06,1.08-.33,2.25-.93,3.01,6.1,1.28,5.75,3.27,6.88,7.49.52,1.94.48,3.58-1.22,5.05l-6.68,5.78c-1.16,1-3.3,1.58-4.71,1.37-1.53-.22-2.66-1.13-2.82-2.5ZM199.66,27.25c.28-1.07.3-1.65.02-2.14l-.02,2.14ZM193.29,82.26c.53-2.15.49-3.66.46-5.68l-.19-11.72-.8-9.02-.41-6.6c-1.74.61-3.69,1.59-4.75,3.17-1.97,2.96-3.67,6.2-4.54,9.7-.69,2.8-.53,5.84-.54,8.72,0,4.17,2.93,8.37,6.82,9.9l3.93,1.54ZM213.36,64.67c-3.58-9.17-4.09-8.86-11.56-14.86-.07.84-.13,1.69-.06,2.46.34,3.61.6,6.98.63,10.57l.15,18.53c8.5-1.82,10.54-9.25,10.85-16.7ZM208.03,113.92l.82.02c.12,0-.47-.6-.59-.6l-6.76-.03c-.21,0-1.03.64-.85.55,1.35-.06,2.4-.08,3.7-.05l3.69.1Z"/>
    <path class="cls-1" d="M116.9,315.81l.2,11.29c-2.52.7-5,.64-7.44-.29-.35-2.72-.24-5.44-.33-8.09l-.37-11.12.03-15.43-.25-9.2c-.06-2.14-.12-3.98-.06-6.22l3.22-.47c2.13-.31,2.76.54,3.86,1.96,2.51,3.26,5.42,6.17,8.14,9.28l5.53,6.33c1.57,1.8,3.03,3.54,4.68,5.3,1.26,1.2,2.15,2.59,3.29,3.91l6.79,7.85.16-14.68-.03-6.14-.44-14.3c.76-1.74,6.51-2.1,7.69-.22l.37,14.34.3,8.3.07,12.32c.03,5,.04,9.68-.75,14.69-2,.28-4,.37-5.69.21-2.12-2.23-3.64-4.33-5.39-6.67-1.53-2.05-3.56-3.77-5.26-5.77l-10.52-12.34c-2.48-2.91-5.03-5.42-7.82-8.01l.15,6.06.25,5.59c.05,1.23-.56,2.14-1.81,2.6l.34.48c.07.09-.08.24-.2.27l-1.13.3,2.03,2.46c.18,1.59.34,3.58.37,5.42Z"/>
    <path class="cls-1" d="M290.59,325.83l-9.37-6.64c-4.83-3.42-6.28-3.1-9.8-6.64l-.1-2.72-2.12,1.14c-1.7.91-4.13-2.26-6.99-1.93.6,5.3.97,9.81.99,15.13l-8.46.84-.32-11.7c-.3-11-.73-21.79-1.67-32.77-.18-2.06-.65-3.9-.16-5.93,2.85-.4,5.38-1.03,8.11-1.18,5.74-.31,11.31,1.15,16.66,3.19,2.3.87,4.2,2.93,5.42,4.89,1.11,1.78,1.07,3.47,1.01,5.33l-.09,3.08c-.11,3.58-1.71,6.77-4.86,8.78-1.89,1.2-4.07,2.52-6.23,3.24-1.51.5-3.17-.56-5.1.51l4.82,3.15,9.5,5.83,4.68,2.8,7.73,4.68c1.23,1.62-1.84,4.89-3.64,6.94ZM266.38,279.92c-.83-.13-1.56-.13-2.2.01.83.13,1.56.13,2.2-.01ZM275.66,291.43c1-1.87.83-3.7.28-5.58-1.25-4.26-4.35-4.32-8.14-4.5l-6.61-.31c-.26.91-.55,2.35-.46,3.36l.9,10.47c7.12.24,8.5.51,14.04-3.44ZM260.11,294.78c.13-.83.13-1.56-.01-2.2-.13.83-.13,1.56.01,2.2ZM266.7,296.44c-1.3-.32-2.11-.33-2.88-.03l2.88.03Z"/>
    <path class="cls-1" d="M332.85,307.51c-3.82,0-7.43-.11-11.17.1l-7.91.44-4.35,8.62-3.44,7.33c-.24.51-.96,1.21-1.43,1.37-.53.18-1.85-.32-2.41-.34l-5.07-.18c.79-2.3,1.4-4.23,2.41-6.24,2.59-5.16,4.64-10.35,6.77-15.71l1.51-3.79,2.65-6.67,2.26-5.68,5.65-13.8,4.72-.28.78-.38c.25-.12.88.51,1.04.85l4.67,9.5,4.89,9.33c2.66,5.08,3.64,9.48,7.04,15.87,1.67,3.13,3.1,6.18,4.6,9.39,1.3,2.78,3.27,4.86,3.22,7.39-1.26.03-2.19.08-3.2-.04l-4.86-.58c-.81-1.14-1.59-3.01-2.28-4.42l-3.05-6.23-3.05-5.83ZM326.32,292.72l1.37-3.42-3.69.64-1.86-3.29-4.85,11.93,6.93-.04,5.25.07-3.14-5.89ZM327.55,286.93l-.54.84c-.1.15.7.15.95.19.43.08-.4-1.05-.41-1.03Z"/>
    <path class="cls-1" d="M236.19,322.28c-2.45,2.1-4.93,3.49-8.1,3.91-2.2.29-4.41,1.06-6.7,1.2-2.83.17-6.07-.58-8.48-2.02-2.15-1.29-3.69-3.25-5.47-5-5.12-9.69-8.03-28.17-1.27-37.18,2.28-3.03,4.77-5.83,8.13-7.55,1.77-.9,3.66-1.35,5.54-2.19,5.65-.61,14.09.6,18.17,5.03,1.95,2.11,3.63,4.59,4.99,7.12,1.14,2.13,4.26,11.3,2.85,13.16.41,2.62.04,5.09-.51,7.74-1.3,6.24-4.22,11.52-9.16,15.77ZM228.11,319.34c7.85-4.09,11.63-12.44,10.23-21.12-.86-5.36-2.29-13.28-7.75-15.58l-1.16-3.91c-1.26,2.36-2.46,1.59-4.21,1.56-2.33-.03-4.67.23-7.13.65-5.27,2.16-8.49,7.79-8.96,13.44-.19,2.27-.61,4.54-.43,6.72.4,4.77,1.4,9.54,3.87,13.41,3.17,4.96,10.4,7.49,15.52,4.82ZM204.39,301.56c.13-.83.13-1.56-.01-2.2-.13.83-.13,1.56.01,2.2Z"/>
    <path class="cls-1" d="M75.72,312.4h-7.69s-1.95,2.77-1.95,2.77c-2.92,4.13-3.61,5.86-6.11,9.63-.67,1.01-1.34,2.95-2.49,3.5-1.6.77-3.84.58-5.7.26-.62-.28-.4-1.99-.04-2.6l3.91-6.58c2.04-3.43,3.62-7,5.7-10.39,1.69-2.76,3.02-5.43,4.41-8.36,1.1-2.34,2.34-4.63,3.57-6.91l6.11-11.36,3.2-5.52c.47-.8,2.78-1.39,3.47-.75.97.9,1.33,2.45,1.93,3.55l3.18,5.89-.89,2.47c1.47.73,2.64,1.94,3.36,3.46l5.18,10.87,4,8.61,7.1,14.57c.18.37.37,1.13.35,1.48-.05,1.54-5.75.5-6.74-.05l-4.92-8.84-3.34-5.68-5.34-.27c-3.44-.18-6.62.25-10.26.26ZM82.11,303.83l5.67-.04-2.82-6.45c-.66-1.5-1.41-2.9-2.18-4.38l-2.51-4.86c-.48,1.03-.82,2.41-1.37,3.41l-6.98,12.69,4.8.13c1.37.04,2.32-.13,3.1,1.52l2.29-2.02ZM92.89,313.73c.5-.65.23-1.84-.93-1.82l.93,1.82ZM96.73,319.45l-.93-1.57c-.21.72-.03,1.28.93,1.57ZM100.11,326.25c.26-1.46-.5-2.69-1.67-3.19l1.67,3.19Z"/>
    <path class="cls-1" d="M179.25,319.64c1.08-.18,2.25-.17,3.04-.48,5.37-2.13,6.58-4.68,5.95-10.75l4.37-.37c.4-.03,1.36.29,1.48.61s-.06,1.03-.06,1.51c0,4.22-.55,8.48-3.38,11.66-2.99,3.35-6.92,5.43-11.39,5.33-5.42-.12-10.49-1.87-14.29-5.66l-2.85-2.84c-5.32-10.36-3.46-6.84-4.99-16.07-.85-5.09.23-9.9,1.97-14.7,1.12-3.08,3.17-5.5,5.31-7.92,1.65-1.87,3.38-3.52,5.8-4.29,5.94-1.91,8.08-2.21,13.91-1.59,8.23.88,8.74,6.71,9.21,13.54.07,1.09-3.82,1.38-4.44,1.25-1.52-.31-1.11-4.41-3.08-6.39-2.81-2.8-7.69-2.43-11.28-1.82-2.81.48-4.41,2.42-5.95,4.5-2.51,3.39-3.29,7.22-4.15,11.3-.99,4.69-.84,8.94,1.13,13.37.98,2.2,1.7,4.78,3.55,6.38l.21,1.9,1.61-.83c.75-.39,1.14,3.56,8.32,2.36ZM157.97,298.71c.16-.96.15-1.79-.01-2.56-.16.96-.15,1.79.01,2.56Z"/>
  </g>
  <g>
    <path class="cls-1" d="M62.83,126.98c-8.79-1.23-6.48-.49-15.35-3.72-.7-.26-1.25-1-1.71-1.55-3.86-4.63,1.47-10.02,4.4-13.58-4.97,2.89-9.96,5.03-15.33,6.74-1.24.4-2.47.79-3.62,1.25l-4.61,1.86c-.5.2-5.66,3.73-3.69,6.69,1.5,2.26,4.03,3.23,5.88,5.16,2.04,2.14,3.47,5.19,4.24,8.08.89,3.34.53,6.91-.28,10.19-.68,2.74-2.25,5.03-3.4,7.54-.44.96-.88,1.85-1.45,2.55.9.43,1.56,1.38,1.68,2.39l.25.58c.06.14-.29.52-.44.51-1.02-.03-.82-1.66-2.28-2.64-.84.83-1.24,1.45-1.46,2.39-.12.29-1.37-.23-1.24-.58.52-1.26,1.95-2.17,2.6-3.33l2.72-4.86.82-1.93c.5-1.19,1.04-2.14,1.15-3.42.27-3.13.76-4.25.51-7.54l-.46.9c.13-1.35.15-2.39-.37-3.49l-1.04-2.17c-.45-.93-.89-2.21-1.62-3.03-1.62-1.82-3.55-3.23-5.5-4.7-2.44-1.84-2.93-5.3-.59-7.43l2.38-2.15c-4.67.76-8.87,2.31-12.67,4.85-3.38,2.26-6.41,4.65-8.82,7.89-1.61,2.17-2.35,4.41-2.19,7.13s.39,5.56,1.6,8.06c1.47,3.04,2.9,5.85,5.37,8.17,3.75,3.54,3.18,4.48,8.74,8.49,2.98,2.15,6.23,3.73,9.41,5.61l6.67,3.94,2.68,1.71c.08.05.53.07.61.02.1-.08.03.31.01.57,3.82,2.32,2.67,1.15,6.09,4.21,2.28,2.04,4.35,4.03,6.14,6.43-.16-3.41-1.41-7.04-2.53-10.06-.68-1.83-2.22-3.09-4.02-3.61-.26-.4.15-1.34.68-1.62,3.93,2.12,6.16,6.48,6.85,10.65l.81,4.88c.42,2.54.2,2.49.73,4.83-.01-.05.76.86.04,1.36-.19.13-.98-.18-1.11-.44l-2.33-4.57c-.47-.93-1.26-1.77-1.91-2.61-2-2.61-4.58-4.6-7.28-6.46-1.5-1.04-2.93-2.09-4.53-2.97-3.91-2.17-7.8-4.08-11.56-6.51-.71-.46-1.46-1.23-2.2-1.56-1.9-.86-3.13-2.14-4.76-3.36-7.2-5.36-14.61-13.5-15.39-22.94-.17-2.11-.33-4.3.46-6.28,2.01-4.95,6.05-8.25,10.24-11.32,1.61-1.18,3.28-2.25,5.12-3.03,7.36-3.13,9.67-2.27,15.72-4.38l4.25-1.49c6.11-2.14,11.83-4.68,17.09-8.47,1.62-1.17,3.32-2.27,4.77-3.54.15-.13.32-.77.49-.7l.9.39c.21.09-.28.8-.45.96-3.97,3.49-7.93,6.95-11.09,11.14-1.26,1.67-2.2,3.63-1.82,5.71.63,3.44,5.88,4.52,8.41,5.32s4.98,1.17,7.66,1.48c8.03.91,11.39,1.8,18.97-1.5,1.83-.8,3.52-1.5,5.15-2.73,2.68-2.03,5.42-3.81,7.92-6.09,1.78-1.63,3.15-3.68,4.57-5.67l4.98-6.97c3.29-4.6,6.47-8.54,11.75-10.83,2.99-1.29,6.17-2.64,9.72-1.7.46.97-.58,1.84-1.55,2.2-1.76.65-3.49,1.45-5.08,2.44-3.87,2.41-6.12,7.77-6.9,12.03l-1.23,6.7c-.51,2.79-1.38,5.67-3.11,7.97-1.22,1.63-3.29,2.44-4.92,3.64,1.17.21,2.76.24,3.97.64l3.84,1.27c4.72,1.56,8.57,4.48,12.09,7.86,1.56,1.5,1.99,3.13,2.33,5.3.41,2.6.72,5.42-.85,7.8-.18.27-1.19.01-1.21-.32-.16-2.28.18-5.03-1.25-6.96-2.41-3.26-6.62-4.57-10.55-4.46-1.34.04-2.79.12-4.01.56-2.75.99-5.37,2.21-7.62,3.97l-4.99,3.9c-1.17.91-2.36,1.73-3.45,2.74-2.35,2.16-4.26,4.09-7.33,5.3,1.44.22,2.52.46,3.67.99l2.99,1.36c1.68.77,2.65,2.29,3.32,4.03,1.17,3.05.09,7.97-.36,8.25-.23.14-.9.02-1.14-.12-.71-.4.81-1.94-1.34-4.25-1.47-1.58-3.23-2.14-5.44-2.2-3.55-.1-7.06.66-10.54,1.43l-4.39.97-8.72,2.08-3.8.8c-3.05.64-6.03,1.5-9.2,1.48-1.2,0-2.54.31-3.55.09l-3.23-.71-2.58-.25c-2.15-.21-4.94-1.51-7.22-2.12-.27-.07-.7-.38-.8-.6-.12-.27.63-.81.93-.7l2.63.95c2.29.83,4.42,1.38,6.83,1.73,5.67.81,9.4.61,14.98-.8,1.65-.42,3.47-.48,5.07-.99,1.1-.35,2.08-.87,3.18-1.01,1.39-.18,2.76-.42,4.11-.8,1.65-.47,3.23-.76,4.91-1.11,3.05-.64,5.98-1.28,9.12-1.56,5.12-.46,6.12-.33,9.72,3.86.06-2.47-.45-5.91-3.24-7.34-5.49-2.8-6.36-2.92-12.9-1.48-.27-.14-.32-1.1-.1-1.33,1.31-1.36,4.38.88,11.17-4.72l6.91-5.7c3.53-2.91,6.77-5.26,11.11-6.91,3.09-1.17,6.51-1.09,9.7-.49,1.85.35,3.32,1.23,4.85,2.2,1.83,1.17,3.01,2.73,3.5,4.78-.28-2.01-.16-4.29-1.36-5.88-2.58-3.42-7.29-6.71-11.3-8.23l-3.19-1.21-1.7-.5c-4.54-1.32-9.27,1-8.6-.19.11-.19.45-.65.66-.75,6.79-3.08,9.63-4.38,11.01-12.26l.74-4.21c.49-2.79,1.89-7.7,3.2-10.24,2-3.89,5.53-6.2,9.96-7.69-3.23-.81-6.19.94-8.99,3.02l-4.45,3.3c-.92.68-1.81,1.76-2.51,2.56l-4.58,6.49-3.23,4.61c-1.81,2.59-3.94,4.86-6.48,6.76-5.86,4.39-7.54,5.77-14.56,8.33-1.21.44-2.44.7-3.67,1.01-2.19.55-8.88-.08-11.34-.42Z"/>
    <path class="cls-1" d="M9.83,142.33c-.37-1.86.46.24,1.19-4.62.72-4.77-2.09-5.58.76-6.15,2.06-.41,3.37-2.62,3.25-4.61,0-.16.18-.67.33-.69l.6-.06c.2-.02.11.81.23.98,1.33,1.91,1.48,4.98-.56,6.64,1.52,1.96,1.1,4.78-.93,6.28-1.38,1.01-3.09,1.64-4.87,2.23ZM15.03,137.82c1.02-2.42-1.12-3.02-1.15-4.03-.04-1.23,2.7-.73,1.84-4.4-.83,1.45-2.21,2.57-3.84,3.4.67,2.44.53,4.83-.12,7.38,1.5.04,2.64-.85,3.27-2.35Z"/>
    <path class="cls-1" d="M69.55,156.77c-.07.17-.9.3-1.08.32s-.24-.72-.1-.95c1.27-2.05,2.18-4.97,3-7.36.7-2.04,1.11-4.18-.88-5.45-.74,1.31-1.69,2.35-3.15,2.4-.24-2.48,1.07-4.77,2.47-6.5,1.17-1.45-1.55-1.8-.72-2.67.27-.28.93-.28,1.15-.08,2.8,2.58-1.81,4.63-1.68,7.78l2.33-2.95c1.24,1.43,2.82,3.59,2.27,5.49-.65,2.23-1.38,4.25-2.22,6.4l-1.39,3.57Z"/>
    <path class="cls-1" d="M50.85,159.71c.54.8-1.06,1.69-1.61,1.11-.4.19-.94.45-1.3.55-.4.12-1.3-.65-1.42-1.06-.58-1.92-.32-3.96.4-5.81l1.21-3.14c.63-1.64-1.86-1.5-2.6-2.35-1.56-1.77,2.6-5.44,3.33-4.35.68,1.01-2.33,1.26-2.36,3.19.76.49,2.26.73,2.65,1.76.83,2.19-3.21,7.11-1.38,10.2.43.72,2.5-.98,3.09-.1Z"/>
    <path class="cls-1" d="M92.67,142.21l-4.23-2.51c-.84-.5-1.86-.38-2.78-.53l-2.2-.37c-.74-.12-1.5.31-2.03.85l-.56.47c-.17.15-.55-.71-.42-.95,1.89-3.36,2.36-5.79,4.15-8.37.13-.19.78-.52.9-.35s.07.74-.04.93l-1.62,2.65c-.79,1.29-1.22,2.62-1.5,4.07l1-.46c.26-.12.84.28,1.14.28,1.24.01,3.46-.14,4.53.48l3.14,1.84c.65.38,1,1.15.53,1.96Z"/>
    <path class="cls-1" d="M36.33,154.56c2.65,1.61,4.12,5.25,2.13,6.05-.25-5.13-4.14-4.44-4.07-6.94.02-.62.62-1.52,1.17-1.89l1.74-1.18c-.49-2.49-2.75-2.21-3.41-3.46-.12-.23.21-.87.47-.91.59-.1,3.66,1.86,3.96,3.33.36,1.75-1.04,2.75-2.45,3.4-.55.25.02,1.33.46,1.6Z"/>
    <path class="cls-1" d="M59.08,143.06c-.34,2.87-1.93,3.44-2.79,6.47-.06.21-.48.49-.66.54-.22.06-.43-.67-.32-.89l1.89-4.03c.94-2.01,1.04-4.68-.38-4.69s-2.39-.45-2.62-1.88.58-3.3,2.06-3.92c1.27,1.23-1.53,1.99-.93,3.49.64,1.61,1.85-.04,2.96,1.53.76,1.07.95,1.99.79,3.38Z"/>
    <path class="cls-1" d="M99.49,133.51c.01.97-1.86,1.08-2.97,1.54l-2.4.99c-.85.35-1.43,1.8-2.7,1.82-.43-.45-.02-1.31.14-2.04.81-3.64-1.01-7.94.39-7.45.2.07.5.43.53.7l.29,2.8c.11,1.03.11,2.28.12,3.31.99-.49,1.86-.76,2.89-1.2l2.7-1.14c.28-.12,1.02.38,1.02.67Z"/>
    <path class="cls-1" d="M64.5,157.38c-.05-2.22-.15-4.23.33-6.24.39-1.62.91-3.18.99-4.85.1-2.29-3.8-2.35-2.1-4.07.18-.18.73.3.99.44,5.06,2.79-.09,8.42.88,13.11l.24,1.17c.05.26-.57.45-1.34.45Z"/>
    <path class="cls-1" d="M42.89,139.93c.33-.24.48,1.21.1,1.46-.5.32-3.35-1.43-3.74-3.18-.76-3.44,3.48-4.3,1.32-6.42l-2.24-2.2c-.22-.22-.11-1.05.17-1.2.26-.14.74.1,1,.38l1.88,1.99c.85.9,1.43,2.56.51,3.6-.82.92-1.75,1.94-1.72,3.3.24.41.74,1.23,1.06,1.52l1.19,1.09.47-.34Z"/>
    <path class="cls-1" d="M51.01,140.14c.12.39.38.94.15,1-.37.1-.7.17-.94.18-.38.02-.62-.88-.41-1.1,1.85-1.87,1.97-5.41-.68-7.13l-2.86-1.86c-.25-.16-.48-.73-.52-.98s.61-.87.81-.72c1.99,2.22,3.62,1.8,5.16,4.36,1.16,1.93.54,4.46-.72,6.25Z"/>
    <path class="cls-1" d="M42.3,150.75c-.63,2.77-1.24,1.5-.33,4.02.09.24-.4.81-.66.82-.58-.17-1.29-1.35-1.36-2.08,1.04-1.56,1.55-3.34,2.02-5.11.95-3.53-1.57-3.93-2.71-5.04-.2-.2.03-1.15.31-1.18.48-.05,1.29.6,1.7.9,2.93,2.13,1.81,4.16,1.02,7.67Z"/>
    <path class="cls-1" d="M35.04,161.94c-.32.21-3.18-1.82-3.76-3.65-.38-1.21,3.19-1.13,2.01-2.82l-1.41-2.02c-.16-.23.03-1.02.3-1.03.87-.01,2.38,2.44,2.47,3.53.11,1.4-.96,2.16-2.15,2.45.78,1.09,1.86,1.66,3,2.17.03.35-.21,1.2-.47,1.38Z"/>
    <path class="cls-1" d="M43.44,161.53c.02.95,2.07,2.82,4.07,2.44-.14.7-1.12,1.51-1.71,1.35-2.75-.73-3.94-3.45-3.51-6.11l.13-.78c.03-.21.66-.34.96-.31l.06,3.4Z"/>
    <path class="cls-1" d="M60.81,134.37c.8,1.91,3.5,3.37,1.1,3.84-.68-.87-1.65-2.11-1.96-3.25-.78-2.88,2.37-6.99,2.31-5.26-.07,2.12-1.1,1.06-1.45,4.67Z"/>
    <path class="cls-1" d="M67.02,139.34c.29.34.19,1.19-.12,1.47-3.4-1.73-2.93-5.98-2.26-8.8.05-.19.88-.53.92-.34.16.77-.64,3.62-.33,5.57l1.79,2.1Z"/>
  </g>
  <g>
    <path class="cls-1" d="M390.63,158.18c-.62-.26-.97-1.82-1.11-2.4l-2.66,1.88,5.88,4.24c1.88,9.38-9.21,3.94-9.45,11.87-.06,1.89-.87,4.15-1.73,5.78-2.37.78-6.28,2.69-7.5,4.51-.96,1.43-.31,3.1.92,3.71.26.13.91.53.89.77l-.1,1.39c-1.64-.54-3.44-2.05-3.44-4.13,0-1.06.56-2.72,1.31-3.55.97-1.09,2.56-1.6,3.88-2.06,2.99-1.06,4.61-3.84,4.58-6.97-.02-2.36,1.45-4.27,3.65-5.02l3.85-1.3c.8-.27,1.64-1.1,1.87-1.75.25-.69.31-2.05-.32-2.5l-4.39-3.16c-.33-.23-1.23-.41-1.63-.48-1.28,1.21-2.66,2.07-4.19,2.6,1.6,1.72,2.16,4.43.4,6.26-2.23,2.33-1.67,1.54-5.02,2.82-5.27,2.02-5.8,7.51-6.59,8.67l-1.95,2.85c-1.99.28-3.85,2.04-6.54.75-.04-2.01,3.21.19,6.01-2.53,3.65-3.55,1.28-7.97,8.91-11.03,1.76-.71,3.9-1.18,4.64-3.21.48-1.31-.49-2.98-1.13-4.09-1.3.45-2.36,1-3.48,1.24l-1.89.4c-3.09.65-6.23.71-9.38.9l-6.11.38-3.32.3c-5.54.49-12.77,4.47-17.43,7.75-3.3,2.32-6.45,4.49-9.02,7.73-.69.86-1.52,1.68-2.35,2.47-2.31,2.19-4.14,5-4.49,8.23-.04.37,0,.84-.04,1.1-.05.31-1.4-.13-1.46-.49-.6-3.57-.52-8.24.72-11.85,2.8-8.17,2.06-6.99,7.74-13.97-3.27-.83-6.23-4.32-8.59-7.15-1.65-1.99-2.98-3.84-4.2-6.1-1.45-2.7-3.02-5.3-4.29-8.08-1.24-2.72-2.6-5.13-4.19-7.64-1.33-2.11-2.54-4.17-4.16-6.09-1.66-1.97-3.04-4.04-4.93-5.9s-4.52-3.34-7.22-3.88c-1.6-.32-3.97.83-4.65,2.31l-2.07,4.53c-.07.16-.81.39-.88.23-.53-1.28-.08-2.06.04-2.77.32-1.95-.6-4.05-1.23-5.87-.77-2.22.65-3.89,1.26-5.84,1.03-3.27.41-6.9,4.31-10.38.49-.44,1.2-.5,1.75-.33.09-.17.2-.44.3-.37l.65.46c.14-.37.24-1.1.09-1.57-1.56-4.85,1.98-11.42,5.47-13.65l5.11-3.26c3.49-2.23,6.77-4.78,9.28-8.14,1.29-1.73,2.16-3.76,3.28-5.58,1.72-2.78,1.77-5.83,1.89-8.99.08-2.15.75-4.25.65-6.36-.02-.36,0-.82.05-1.09.05-.29,1.04-.38,1.15-.11.95,2.32.68,4.86,1.18,7.27l1.15,5.52-.28.86.04,4.12c.04,3.69-2.4,7.82-4.48,10.81l-1.41,2.03-7.03,9.44c-1.69,2.28-4.5,7.61-4.14,10.64.73,6.23,2.46,12.52,5.97,17.64l3.74,5.46c.85.35,2.04.88,2.98,1.18.89.28,2.92-.49,3.55-1.2,1.81-2.06,3.1-4.93,2.94-7.75-.11-2.01-.65-4.28-1.37-6.12l-2-5.12c-.27-.24-.59-.62-.8-1.03-1.14-2.24-2.43-2.06-1.86-3.63.13-.35,1.13-.13,1.38.18.43.57.92,1.29,1.5,1.69,1.81,1.25,3.52,2.65,4.63,4.54l2.3,3.9,1.25,3.2c.4,1.03,1.22,2.12,1.23,3.35.37.3.69.74.85,1.32,1.56,2.41,2.87,3.15,5.38,4.74,1.38.88,3.06,1.14,4.7,1.55,3.73.94,4.94.55,7.73-1.31l3.41-2.26c2.22-1.48,4.07-3.71,5.66-5.77,2.47-3.18,2.97-6.79,1.92-10.53-.72-2.56-1.98-4.61-3.51-6.79-.59-.84-1.14-1.89-1.7-2.78l-3.88-6.17c-.37-.59-3.57-5.5-2.28-5.73,1.03-.18,4.25,3.51,5.3,4.62,2.72,2.85,5.39,5.51,8.31,8.12l3.84,3.45,3.4,3.09c5.32,4.83.54,3.97,11.81,8.6,1.28.53,2.34,1.11,3.49,1.9l2.06,1.43c2.17,1.5,4.21,2.96,5.87,5.04l2.46,3.09c1.7,2.14,2.99,4.62,3.91,7.18.86,2.36.99,4.48.56,6.94-.31,1.8-1.1,3.51-2.94,4.08-.35.54-1.07,1.4-1.25,1.91-.14.42.08,1.49-.03,1.93l-.15.63c-.03.11.31.01.51-.04-.05-.72-.05-.76-.01-.22.31.33.42.45.32.35-.48.18-1.21.4-1.09.64l.43.87c-1.74,1.47-.46.92-2.11,3.23-.47.66-.52,1.67.2,2.25l3.49-1.9c3.2,1.92.63,4.49,1.44,5.83.63-.08,1.71-.29,2.05.02,1.03.94,1.9,2.52,2.02,3.94.12,1.51-.68,6.21-.91,6.96l-.9,2.94c-.35,1.16-.3,2.33-1.09,3.32-.45-.2-.7-.89-.58-1.35,1.11-4.4,3.61-11.26.84-14.51l-2.46.14c-1.7-1.98.87-4.95-.89-5.57-1.39.46-2.39,1.96-4.06,1.38ZM371.85,125.78c-.65,8.12-4.36,8.75-5.11,16.64-.24,2.5.48,4.87.88,7.4s1.33,5.21,3.22,6.93c3.32,3.03,2.21,2.25,5.13,5.57l3.78-1.43c.96-.36,2.02-.64,2.85-1.27l2.46-1.85,3.17-2.52c1.5-1.19,2.77-3.05,3.75-4.68.58-.96.32-2.44-.02-3.26-.68-1.64,1.6-1.55,3-4.3,2.85-14.93-9.06-22.45-20.69-27.7l-3.7-1.67c-.66-.89-1.25-2.39-1.99-3.27-1.45-1.69-2.87-3.29-4.49-4.77l-4.49-4.09-5.17-4.53-3.43-3.11,4.74,7.69,3.5,5.46c.5.78.42,2.16,1.19,2.8.8,3.16-.33,5.99-1.54,8.81-1.14,2.66-2.41,4.85-4.68,6.72-1.95,1.61-4.46,4.07-6.97,4.68l-2.57.63c-1.31.32-2.68.39-4.01.08l-2.72-.64c-12.08-2.85-10.15-10.96-15.13-17.91l-2.24-3.13,2.15,7.02c.47,1.52,1.06,3.24,1,4.86-.12,3.32-1.78,6.68-3.85,9.14l-3.87.93c-1.12.27-3.35-.8-4.02-1.75-1.33-1.87-2.33-3.53-3.83-5.17-.5-.55-.8-1.24-1.16-1.9-2.4-4.38-3.82-8.99-4.96-13.84-1.76-7.5,2.79-12.52,7.08-18.47,1.86-2.58,3.37-5.26,5.51-7.66,3.57-4.01,3.89-9.21,4.09-14.22.05-1.3-.06-2.46-.61-3.55-2.13,10.67-8.95,17.58-17.98,22.95-3.57,2.12-6.78,4.97-7.79,9.16-.35,1.46-.44,2.85-.02,4.28l.85,2.92c.13.46-1.13.73-1.62.57-2.02-.67-4.03.66-4.77,2.61l-.98,2.57c-.48,1.25-.06,2.64-.2,3.89-.22,1.91-2.76,2.4-.38,9.92l2.04-1.88c2.02-1.86,4.14-2.23,6.58-1.11,2.52,1.16,4.88,2.48,6.66,4.71l4.8,6c2.94,3.67,4.7,7.75,7.03,11.79l2.45,4.24c.46.8.96,1.66,1.41,2.29l.43-.71.72,2.24c.11.36-.15,1.2.08,1.59,1.13,1.93,2.25,3.62,3.67,5.3l2.1,2.49c1.91,2.26,4.32,4.29,7.42,4.46.33.02,1.07-.82,1.58.06-.48.84-1.37,1.58-2.16,2.34-1.68,1.63-3.18,3.49-4.44,5.5s-1.72,4.59-2.73,6.78c-1.29,2.8.3-.05-1.22,4.21-.15.42-.08.82.21,1.2-.22,1.29-.38,2.75-.25,4.3.88-2.02,1.76-3.93,3.28-5.6l4.63-5.06c2.05-2.23,4.34-3.96,6.82-5.61l5.66-3.77c2.14-1.43,10.16-4.84,13.03-5.02l11.34-.72c2.67-.17,5.28-.18,8.02-.71-2.97-1.75-6.12-6.66-7.45-9.8-2.18-5.14-2.25-11.29-.04-16.48.79-1.86,2.2-3.32,2.77-5.26,3.41-11.54-2.66-14.06-2.6-15.63.06-1.63,5.48,2.26,4.83,10.31Z"/>
    <path class="cls-1" d="M350.03,141.05l-4.71-1.49c1.88,2.79,4.12,5.17,7.07,6.77,2.49,1.35,6.54,2.29,9.39,2.59.41.04.87.78.89,1.37-6.73-.7-12.09-2.1-16.48-7.69-1.09-1.39-3.21-3.6-2.89-5.08.05-.24.79-.18,1.03-.04,2.26,1.4,6.62,3.07,9.31,3.1s5.14-.64,7.68-1.45c2.92-.93,1.99-1.63,3.65-1.77.17-.01.38.54.26.67-.74.79-4.37,2.18-5.8,2.6l-1.46.43c-2.6.76-5.16.87-7.93,0Z"/>
    <path class="cls-1" d="M380.17,133.05l-1.64,2.93c-1.46,2.61.24,4.29,1.82,5.92-.47.53-.62,1.17-.23,1.68l.25-1.41c.89.95,1.03,2.64.24,3.73-1.92-.36.76-1.01-2.87-4.99-1.09-1.2-1.23-3.73-.39-5.12,2.23-3.66,3.18-5.02-.21-9.12-.25-.3.2-1.28.62-1.13.84.28,1.37,1.04,1.82,1.76,2.08,3.35,5.41.89,5.5,4.55,1.2,1.44-.34,4.75-1.61,5.89-.18.49-.34,1.09-.71,1.2-.51.15-1.37.13-1.68-.2,2.17-2.01,4.03-4.8,2.49-7.6l-3.12-1.03c.25,1.01.22,2.01-.3,2.95Z"/>
  </g>
</svg>